# xmcd
#
# Track frame offsets:
#	150
#	7545
#	27240
#	41687
#	55597
#	69052
#	82035
#	95102
#	105352
#	121645
#	133440
#	144420
#	156177
#	166777
#	183857
#
# Disc length: 2547 seconds
#
# Revision: 0
# Processed by: cddbd v1.5.2PL0 Copyright (c) Steve Scherf et al.
# Submitted via: EasyCDDAExtractor 16.1.0.1
#
DISCID=b009f10f
DTITLE=Naplava - Trampské písně z brány čech
DYEAR=1996
DGENRE=Country
TTITLE0=Tejden I.
TTITLE1=Závrať
TTITLE2=Po řece dolů
TTITLE3=Jako já mívá sen (Wildflowers)
TTITLE4=Jdu za tebou mami
TTITLE5=A stále dál
TTITLE6=Zima
TTITLE7=Až projdeš
TTITLE8=Rybář
TTITLE9=Vzpomínka
TTITLE10=Norman (My Name Is Morgan)
TTITLE11=Vlci táhnou
TTITLE12=Nech mě poslat tu zprávu (Take a Message To Mary)
TTITLE13=Kam táhnu kříž (Morning Train)
TTITLE14=Tejden II.
EXTD=
EXTT0=
EXTT1=
EXTT2=
EXTT3=
EXTT4=
EXTT5=
EXTT6=
EXTT7=
EXTT8=
EXTT9=
EXTT10=
EXTT11=
EXTT12=
EXTT13=
EXTT14=
PLAYORDER=
